<svg xmlns="http://www.w3.org/2000/svg" width="192" height="192" viewBox="0 0 192 192">
  <rect width="192" height="192" rx="42" fill="#1A2A4A"/>
  <polygon points="96,28 114,88 78,88" fill="#C9A84C" opacity="0.12"/>
  <!-- Left page -->
  <rect x="46" y="82" width="46" height="70" rx="3" fill="#F9F6F0"/>
  <!-- Right page -->
  <rect x="95" y="82" width="46" height="70" rx="3" fill="#F9F6F0"/>
  <!-- Spine -->
  <line x1="96" y1="82" x2="96" y2="152" stroke="#C9A84C" stroke-width="2" stroke-linecap="round"/>
  <!-- Left lines -->
  <line x1="54" y1="96"  x2="87"  y2="96"  stroke="#C9A84C" stroke-width="1.5" opacity="0.75"/>
  <line x1="54" y1="105" x2="87"  y2="105" stroke="#C9A84C" stroke-width="1"   opacity="0.35"/>
  <line x1="54" y1="113" x2="78"  y2="113" stroke="#C9A84C" stroke-width="1"   opacity="0.35"/>
  <line x1="54" y1="121" x2="87"  y2="121" stroke="#C9A84C" stroke-width="1"   opacity="0.25"/>
  <!-- Right lines -->
  <line x1="104" y1="96"  x2="135" y2="96"  stroke="#C9A84C" stroke-width="1.5" opacity="0.75"/>
  <line x1="104" y1="105" x2="135" y2="105" stroke="#C9A84C" stroke-width="1"   opacity="0.35"/>
  <line x1="104" y1="113" x2="128" y2="113" stroke="#C9A84C" stroke-width="1"   opacity="0.35"/>
  <line x1="104" y1="121" x2="135" y2="121" stroke="#C9A84C" stroke-width="1"   opacity="0.25"/>
  <!-- Gold dot -->
  <circle cx="96" cy="64" r="7" fill="#C9A84C"/>
  <line x1="96" y1="53" x2="96" y2="47" stroke="#C9A84C" stroke-width="1.5" opacity="0.8"/>
  <line x1="86" y1="58" x2="81" y2="54" stroke="#C9A84C" stroke-width="1.5" opacity="0.6"/>
  <line x1="106" y1="58" x2="111" y2="54" stroke="#C9A84C" stroke-width="1.5" opacity="0.6"/>
  <circle cx="96" cy="64" r="3.5" fill="#F5EDD8"/>
</svg>